<mxfile host="app.diagrams.net" modified="2022-08-03T09:48:53.776Z" agent="5.0 (X11; Linux x86_64) AppleWebKit/537.36 (KHTML, like Gecko) Chrome/102.0.5005.136 Safari/537.36" etag="C124SeLTlio66vle8yV-" version="20.2.2" type="github">
  <diagram id="jI0t9Jj1su2kJrvnwUk2" name="Page-1">
    <mxGraphModel dx="833" dy="471" grid="1" gridSize="10" guides="1" tooltips="1" connect="1" arrows="1" fold="1" page="1" pageScale="1" pageWidth="850" pageHeight="1100" math="0" shadow="0">
      <root>
        <mxCell id="0" />
        <mxCell id="1" parent="0" />
        <mxCell id="X1-dY9an8zhpWoKtoHzg-18" style="edgeStyle=orthogonalEdgeStyle;rounded=1;orthogonalLoop=1;jettySize=auto;html=1;entryX=1;entryY=0.5;entryDx=0;entryDy=0;fontFamily=Tahoma;fontSize=12;" edge="1" parent="1" source="X1-dY9an8zhpWoKtoHzg-1" target="X1-dY9an8zhpWoKtoHzg-10">
          <mxGeometry relative="1" as="geometry" />
        </mxCell>
        <mxCell id="X1-dY9an8zhpWoKtoHzg-19" style="edgeStyle=orthogonalEdgeStyle;rounded=1;orthogonalLoop=1;jettySize=auto;html=1;exitX=1;exitY=0.5;exitDx=0;exitDy=0;entryX=0;entryY=0.5;entryDx=0;entryDy=0;fontFamily=Tahoma;fontSize=12;" edge="1" parent="1" source="X1-dY9an8zhpWoKtoHzg-1" target="X1-dY9an8zhpWoKtoHzg-2">
          <mxGeometry relative="1" as="geometry" />
        </mxCell>
        <mxCell id="X1-dY9an8zhpWoKtoHzg-1" value="&lt;font style=&quot;font-size: 26px;&quot;&gt;Verification&lt;br&gt;&amp;amp;&lt;br&gt;Validation&lt;/font&gt;" style="ellipse;whiteSpace=wrap;html=1;aspect=fixed;fillColor=#dae8fc;strokeColor=#6c8ebf;" vertex="1" parent="1">
          <mxGeometry x="300" y="40" width="250" height="250" as="geometry" />
        </mxCell>
        <mxCell id="X1-dY9an8zhpWoKtoHzg-8" value="" style="edgeStyle=orthogonalEdgeStyle;rounded=0;orthogonalLoop=1;jettySize=auto;html=1;fontFamily=Tahoma;fontSize=12;" edge="1" parent="1" source="X1-dY9an8zhpWoKtoHzg-2" target="X1-dY9an8zhpWoKtoHzg-3">
          <mxGeometry relative="1" as="geometry" />
        </mxCell>
        <mxCell id="X1-dY9an8zhpWoKtoHzg-2" value="&lt;font style=&quot;font-size: 12px;&quot;&gt;Валидация - динамическое тестирование конечного продукта, проверка соответствия ожидаемым результатам&lt;/font&gt;" style="rounded=1;fontSize=26;fontFamily=Tahoma;horizontal=1;verticalAlign=top;spacing=0;whiteSpace=wrap;html=1;fillColor=#d5e8d4;strokeColor=#82b366;" vertex="1" parent="1">
          <mxGeometry x="600" y="40" width="160" height="160" as="geometry" />
        </mxCell>
        <mxCell id="X1-dY9an8zhpWoKtoHzg-7" value="" style="edgeStyle=orthogonalEdgeStyle;rounded=1;orthogonalLoop=1;jettySize=auto;html=1;fontFamily=Tahoma;fontSize=12;" edge="1" parent="1" source="X1-dY9an8zhpWoKtoHzg-3" target="X1-dY9an8zhpWoKtoHzg-4">
          <mxGeometry relative="1" as="geometry" />
        </mxCell>
        <mxCell id="X1-dY9an8zhpWoKtoHzg-3" value="&lt;font style=&quot;font-size: 12px;&quot;&gt;Делаем ли продукт&lt;br&gt;&amp;nbsp;правильным&lt;/font&gt;" style="rounded=1;fontSize=26;fontFamily=Tahoma;horizontal=1;verticalAlign=top;spacing=0;whiteSpace=wrap;html=1;fillColor=#d5e8d4;strokeColor=#82b366;" vertex="1" parent="1">
          <mxGeometry x="600" y="220" width="160" height="80" as="geometry" />
        </mxCell>
        <mxCell id="X1-dY9an8zhpWoKtoHzg-4" value="&lt;span style=&quot;font-size: 12px;&quot;&gt;Происходит после валидации&lt;/span&gt;" style="rounded=1;fontSize=26;fontFamily=Tahoma;horizontal=1;verticalAlign=top;spacing=0;whiteSpace=wrap;html=1;fillColor=#d5e8d4;strokeColor=#82b366;" vertex="1" parent="1">
          <mxGeometry x="450" y="350" width="160" height="50" as="geometry" />
        </mxCell>
        <mxCell id="X1-dY9an8zhpWoKtoHzg-9" value="" style="edgeStyle=orthogonalEdgeStyle;rounded=0;orthogonalLoop=1;jettySize=auto;html=1;fontFamily=Tahoma;fontSize=12;" edge="1" parent="1" source="X1-dY9an8zhpWoKtoHzg-10" target="X1-dY9an8zhpWoKtoHzg-12">
          <mxGeometry relative="1" as="geometry" />
        </mxCell>
        <mxCell id="X1-dY9an8zhpWoKtoHzg-10" value="&lt;font style=&quot;font-size: 12px;&quot;&gt;Верификация - статическая проверка документов, дизайна,кода и тд&lt;/font&gt;" style="rounded=1;fontSize=26;fontFamily=Tahoma;horizontal=1;verticalAlign=top;spacing=0;whiteSpace=wrap;html=1;fontStyle=0;fillColor=#f5f5f5;fontColor=#333333;strokeColor=#666666;" vertex="1" parent="1">
          <mxGeometry x="80" y="40" width="160" height="120" as="geometry" />
        </mxCell>
        <mxCell id="X1-dY9an8zhpWoKtoHzg-11" value="" style="edgeStyle=orthogonalEdgeStyle;rounded=1;orthogonalLoop=1;jettySize=auto;html=1;fontFamily=Tahoma;fontSize=12;" edge="1" parent="1" source="X1-dY9an8zhpWoKtoHzg-12" target="X1-dY9an8zhpWoKtoHzg-13">
          <mxGeometry relative="1" as="geometry" />
        </mxCell>
        <mxCell id="X1-dY9an8zhpWoKtoHzg-12" value="&lt;font style=&quot;font-size: 12px;&quot;&gt;Делаем ли продукт&lt;br&gt;&amp;nbsp;правильным&lt;/font&gt;" style="rounded=1;fontSize=26;fontFamily=Tahoma;horizontal=1;verticalAlign=top;spacing=0;whiteSpace=wrap;html=1;fontStyle=0;fillColor=#f5f5f5;fontColor=#333333;strokeColor=#666666;" vertex="1" parent="1">
          <mxGeometry x="80" y="220" width="160" height="80" as="geometry" />
        </mxCell>
        <mxCell id="X1-dY9an8zhpWoKtoHzg-13" value="&lt;span style=&quot;font-size: 12px;&quot;&gt;Происходит до валидации&lt;/span&gt;" style="rounded=1;fontSize=26;fontFamily=Tahoma;horizontal=1;verticalAlign=top;spacing=0;whiteSpace=wrap;html=1;fontStyle=0;fillColor=#f5f5f5;fontColor=#333333;strokeColor=#666666;" vertex="1" parent="1">
          <mxGeometry x="200" y="350" width="160" height="50" as="geometry" />
        </mxCell>
      </root>
    </mxGraphModel>
  </diagram>
</mxfile>
